<?xml version="1.0" encoding="utf-8"?>
<!-- Generator: Adobe Illustrator 22.0.1, SVG Export Plug-In . SVG Version: 6.00 Build 0)  -->
<svg version="1.1" id="Layer_1" xmlns="http://www.w3.org/2000/svg" xmlns:xlink="http://www.w3.org/1999/xlink" x="0px" y="0px"
	 viewBox="0 0 800 800" style="enable-background:new 0 0 800 800;" xml:space="preserve">
<style type="text/css">
	.st0{fill:#20A8D8;}
</style>
<path class="st0" d="M107.2,644.6c-0.2-0.2-0.7-0.4-0.7-1.2v-65.9c0-9.4-7.6-17-17-17s-17,7.6-17,17v65.9c0,0.6-0.5,1-0.7,1.1
	c-9.4,6-15.1,16.4-15.1,27.6c0,18.1,14.7,32.8,32.8,32.8c18.1,0,32.8-14.7,32.8-32.8C122.3,660.9,116.6,650.6,107.2,644.6z
	 M89.5,699c-14.8,0-26.8-12-26.8-26.8c0-9.9,5.5-19,14.2-23.7l0.4-0.2c0,0,1.2-0.5,1.2-2.4c0-17.1,0-68.3,0-68.3c0-6.1,4.9-11,11-11
	c6.1,0,11,4.9,11,11c0,0,0,51.3,0,68.4c0,1.9,1.3,2.4,1.3,2.4l0.3,0.2c8.8,4.7,14.2,13.8,14.2,23.7C116.3,687,104.3,699,89.5,699z"
	/>
<path class="st0" d="M94.8,659.6c-0.3-0.1-0.9-0.3-0.9-1.3v-20.3c0-2.4-2-4.4-4.4-4.4c-2.4,0-4.4,2-4.4,4.4v20.3c0,1-0.7,1.2-1,1.3
	c-5.6,2.2-9.6,7.6-9.6,14c0,8.3,6.7,15,15,15s15-6.7,15-15C104.4,667.2,100.4,661.7,94.8,659.6z"/>
<path d="M112,639.6l13.9,17.9c1,1.3,2.4,2,3.8,2c1.5,0,2.9-0.7,3.8-2l13.9-17.9c1.1-1.4,1.3-3,0.7-4.3c-0.6-1.3-2-2.1-3.8-2.1H141
	c-0.4,0-0.8-0.4-0.8-0.8v-19.7c0-3.1-2.5-5.6-5.6-5.6h-9.1c-3.1,0-5.6,2.5-5.6,5.6v19.7c0,0.4-0.4,0.8-0.8,0.8h-4
	c-1.8,0-3.2,0.8-3.8,2.1C110.7,636.6,110.9,638.2,112,639.6z M117.4,638c0.4,0,1.8,0,1.8,0c3.1,0,5.6-2.5,5.6-5.6v-19.7
	c0-0.4,0.4-0.8,0.8-0.8h9.1c0.4,0,0.8,0.4,0.8,0.8v19.7c0,3.1,2.5,5.6,5.6,5.6c0,0,0.8,0,1.1,0c0.5,0,0.3,0.2,0.3,0.2l-12,15.5
	c0,0-0.3,0.4-0.7,0.4c-0.4,0-0.7-0.4-0.7-0.4l-12-15.5C117,638.2,116.8,638,117.4,638z"/>
</svg>
