<?xml version="1.0" encoding="utf-8"?>
<!-- Generator: Adobe Illustrator 22.0.1, SVG Export Plug-In . SVG Version: 6.00 Build 0)  -->
<svg version="1.1" id="Layer_1" xmlns="http://www.w3.org/2000/svg" xmlns:xlink="http://www.w3.org/1999/xlink" x="0px" y="0px"
	 viewBox="0 0 800 800" style="enable-background:new 0 0 800 800;" xml:space="preserve">
<style type="text/css">
	.st0{fill:#F5C525;}
	.st1{fill:#F8A805;}
</style>
<g>
	<polygon class="st0" points="169.5,98.1 155.9,109.7 163.2,126.1 145.8,130.7 145.2,148.5 127.7,145.2 119.4,161 105,150.3 
		90.6,161 82.3,145.2 64.8,148.5 64.2,130.7 46.8,126.1 54.1,109.7 40.5,98.1 54.1,86.4 46.8,70.1 64.2,65.5 64.8,47.6 82.3,51 
		90.6,35.2 105,45.8 119.4,35.2 127.7,51 145.2,47.6 145.8,65.5 163.2,70.1 155.9,86.4 	"/>
	<circle class="st1" cx="105" cy="98.1" r="43"/>
</g>
</svg>
