<?xml version="1.0" encoding="utf-8"?>
<!-- Generator: Adobe Illustrator 22.0.1, SVG Export Plug-In . SVG Version: 6.00 Build 0)  -->
<svg version="1.1" id="Layer_1" xmlns="http://www.w3.org/2000/svg" xmlns:xlink="http://www.w3.org/1999/xlink" x="0px" y="0px"
	 viewBox="0 0 800 800" style="enable-background:new 0 0 800 800;" xml:space="preserve">
<style type="text/css">
	.st0{fill:#2196F3;}
</style>
<path class="st0" d="M608.1,626.2c-7.7,0-13.9,3.9-13.9,8.8c0,14.5-24.9,26.3-55.5,26.3s-55.5-11.8-55.5-26.3
	c0-4.8-6.2-8.8-13.9-8.8s-13.9,3.9-13.9,8.8c0,14.5-24.9,26.3-55.5,26.3s-55.5-11.8-55.5-26.3c0-4.8-6.2-8.8-13.9-8.8
	s-13.9,3.9-13.9,8.8c0,14.5-24.9,26.3-55.5,26.3s-55.5-11.8-55.5-26.3c0-4.8-6.2-8.8-13.9-8.8S178,630.1,178,635v122.7
	c0,4.8,6.2,8.8,13.9,8.8h416.3c7.7,0,13.9-3.9,13.9-8.8V635C622,630.1,615.8,626.2,608.1,626.2z"/>
</svg>
