<?xml version="1.0" encoding="utf-8"?>
<!-- Generator: Adobe Illustrator 22.0.1, SVG Export Plug-In . SVG Version: 6.00 Build 0)  -->
<svg version="1.1" id="Layer_1" xmlns="http://www.w3.org/2000/svg" xmlns:xlink="http://www.w3.org/1999/xlink" x="0px" y="0px"
	 viewBox="0 0 800 800" style="enable-background:new 0 0 800 800;" xml:space="preserve">
<style type="text/css">
	.st0{fill:#F86C6B;}
</style>
<path class="st0" d="M696.3,644.8c-0.2-0.2-0.7-0.4-0.7-1.2v-65.6c0-9.3-7.6-16.9-16.9-16.9c-9.3,0-16.9,7.6-16.9,16.9v65.7
	c0,0.6-0.5,1-0.7,1.1c-9.3,6-15,16.3-15,27.5c0,18,14.7,32.7,32.7,32.7c18,0,32.7-14.7,32.7-32.7
	C711.3,661.1,705.6,650.8,696.3,644.8z M678.6,699c-14.7,0-26.7-12-26.7-26.7c0-9.9,5.4-19,14.2-23.6l0.4-0.2c0,0,1.2-0.5,1.2-2.4
	c0-17,0-68.1,0-68.1c0-6.1,4.9-11,11-11c6.1,0,11,4.9,11,11c0,0,0,51.1,0,68.1c0,1.9,1.3,2.4,1.3,2.4l0.3,0.2
	c8.8,4.7,14.2,13.7,14.2,23.6C705.4,687,693.4,699,678.6,699z"/>
<path class="st0" d="M683.9,659.7c-0.3-0.1-0.9-0.3-0.9-1.3V591c0-2.4-2-4.4-4.4-4.4s-4.4,2-4.4,4.4v67.4c0,1-0.7,1.2-1,1.3
	c-5.6,2.2-9.6,7.6-9.6,13.9c0,8.2,6.7,14.9,14.9,14.9s14.9-6.7,14.9-14.9C693.6,667.3,689.5,661.8,683.9,659.7z"/>
<path d="M742.3,639.2l-13.8-17.9c-1-1.2-2.4-2-3.8-2c-1.5,0-2.9,0.7-3.8,2L707,639.2c-1.1,1.4-1.3,3-0.7,4.3c0.6,1.3,2,2.1,3.8,2.1
	h3.3c0.4,0,0.8,0.4,0.8,0.8v19.6c0,3.1,2.5,5.6,5.6,5.6h9c3.1,0,5.6-2.5,5.6-5.6v-19.6c0-0.4,0.4-0.8,0.8-0.8h4
	c1.8,0,3.2-0.8,3.8-2.1C743.6,642.1,743.4,640.6,742.3,639.2z M736.9,640.7c-0.4,0-1.8,0-1.8,0c-3.1,0-5.6,2.5-5.6,5.6v19.6
	c0,0.4-0.4,0.8-0.8,0.8h-9c-0.4,0-0.8-0.4-0.8-0.8v-19.6c0-3.1-2.5-5.6-5.6-5.6c0,0-0.8,0-1.1,0c-0.5,0-0.3-0.2-0.3-0.2l12-15.5
	c0,0,0.3-0.4,0.7-0.4c0.4,0,0.7,0.4,0.7,0.4l11.9,15.4C737.3,640.5,737.5,640.7,736.9,640.7z"/>
</svg>
