<?xml version="1.0" encoding="utf-8"?>
<!-- Generator: Adobe Illustrator 22.0.1, SVG Export Plug-In . SVG Version: 6.00 Build 0)  -->
<svg version="1.1" id="Layer_1" xmlns="http://www.w3.org/2000/svg" xmlns:xlink="http://www.w3.org/1999/xlink" x="0px" y="0px"
	 viewBox="0 0 800 800" style="enable-background:new 0 0 800 800;" xml:space="preserve">
<style type="text/css">
	.st0{fill:#FFFFFF;}
</style>
<g>
	
		<ellipse transform="matrix(0.7071 -0.7071 0.7071 0.7071 -140.9153 293.0085)" class="st0" cx="283.2" cy="316.6" rx="187.8" ry="47.4"/>
	
		<ellipse transform="matrix(0.7071 -0.7071 0.7071 0.7071 -73.9527 468.7645)" class="st0" cx="528.9" cy="323.7" rx="42.9" ry="172.7"/>
	<rect x="490.6" y="208.9" class="st0" width="64.4" height="88.6"/>
	<rect x="212.8" y="456.5" class="st0" width="368.5" height="217.5"/>
	<polygon class="st0" points="439.8,306 413.7,552.4 627.2,426.7 	"/>
	<polygon class="st0" points="330.8,317.6 177.1,460.6 378.6,519.4 	"/>
	<polygon class="st0" points="380,182.2 312.3,378.9 517.9,347.6 	"/>
</g>
<g>
	<g>
		<path d="M658,392.1l-81.6-81.6V202.8c0-8.8-7.1-15.9-15.9-15.9h-63.7c-8.8,0-15.9,7.1-15.9,15.9v12.1L434.9,169
			c-18.8-18.8-49-18.6-67.6-0.1L142,392.1c-18.7,18.7-18.7,48.9,0,67.6c13.6,13.6,33.2,17.1,49.7,11.3v212c0,8.8,7.1,15.9,15.9,15.9
			h384.6c8.8,0,15.9-7.1,15.9-15.9V471c16.6,5.9,36.1,2.3,49.7-11.3c9-9,14-21,14-33.8C672,413.2,667,401.2,658,392.1z M512.6,218.8
			h31.9v59.9l-31.9-31.9V218.8z M448.9,667.1h-95.6V537.5h95.6V667.1z M576.4,667.1h-95.6V521.6c0-8.8-7.1-15.9-15.9-15.9H337.3
			c-8.8,0-15.9,7.1-15.9,15.9v145.6h-97.7V445.9L401,270.4l175.4,175.4V667.1z M635.5,437.2c-6.2,6.2-16.3,6.2-22.5,0
			c-6.8-6.8-184.1-184.1-200.6-200.6c-6.2-6.2-16.2-6.2-22.5-0.1c-9.4,9.3-195,192.9-202.8,200.6c-6.2,6.2-16.3,6.2-22.5,0
			c-6.2-6.2-6.2-16.3-0.1-22.5l225.3-223.2c6.2-6.2,16.3-6.2,22.5,0c14,14,216.7,216.7,223.1,223.1
			C641.7,420.9,641.7,431,635.5,437.2z"/>
	</g>
</g>
<g>
	<g>
		<path d="M393.1,346.3c-35.2,0-63.7,28.6-63.7,63.7s28.6,63.7,63.7,63.7s63.7-28.6,63.7-63.7S428.2,346.3,393.1,346.3z
			 M393.1,441.9c-17.6,0-31.9-14.3-31.9-31.9c0-17.6,14.3-31.9,31.9-31.9c17.6,0,31.9,14.3,31.9,31.9
			C424.9,427.6,410.6,441.9,393.1,441.9z"/>
	</g>
</g>
</svg>
