<?xml version="1.0" encoding="utf-8"?>
<!-- Generator: Adobe Illustrator 22.0.1, SVG Export Plug-In . SVG Version: 6.00 Build 0)  -->
<svg version="1.1" id="Layer_1" xmlns="http://www.w3.org/2000/svg" xmlns:xlink="http://www.w3.org/1999/xlink" x="0px" y="0px"
	 viewBox="0 0 800 800" style="enable-background:new 0 0 800 800;" xml:space="preserve">
<style type="text/css">
	.st0{stroke:#231F20;stroke-linecap:round;stroke-miterlimit:10;}
	.st1{fill:#FFFFFF;stroke:#231F20;stroke-linecap:round;stroke-miterlimit:10;}
</style>
<g>
	<circle class="st0" cx="215.3" cy="611.8" r="84.8"/>
	<circle class="st1" cx="215.3" cy="611.8" r="80.1"/>
	<g id="_x33_6_24_">
		<g>
			<path d="M189,574.7h41c1.1,0,2-0.9,2-2c0-1.1-0.9-2-2-2h-41c-1.1,0-2,0.9-2,2C187.1,573.8,187.9,574.7,189,574.7z"/>
			<path d="M152.3,593.8h41c1.1,0,2-0.9,2-2s-0.9-2-2-2h-41c-1.1,0-2,0.9-2,2S151.2,593.8,152.3,593.8z"/>
			<path d="M163.3,613.9c0,1.1,0.9,2,2,2h41c1.1,0,2-0.9,2-2s-0.9-2-2-2h-41C164.2,611.9,163.3,612.8,163.3,613.9z"/>
			<path d="M186.8,636.6H150c-1.1,0-2,0.9-2,2s0.9,2,2,2h36.9c1.1,0,2-0.9,2-2S187.9,636.6,186.8,636.6z"/>
			<path d="M253.2,586.9c5.9,0,10.7-4.8,10.7-10.7s-4.8-10.7-10.7-10.7c-5.9,0-10.7,4.8-10.7,10.7
				C242.5,582.2,247.3,586.9,253.2,586.9z"/>
			<path d="M270.7,583.9c-6.1,8.6-14.3,9.6-23.1,4.3c-0.6-0.4-3.3-1.8-3.9-2.2c-14.2-8.4-28.4-5.1-37.9,8.2c-4,5.7,5.3,11,9.3,5.4
				c4.9-6.9,11.2-8.9,18-6.7c-3.5,6.1-6.6,12.1-10.9,20.7c-4.3,8.6-13.8,15.4-23,10.1c-6.6-3.9-12.6,5.6-6,9.5
				c12.5,7.3,27.2,2.8,34.6-6.7c0.3,0.1,0.5,0.3,0.8,0.4c6.1,2.1,14.1,7.8,16.6,9.8c2.4,2,6.6,12.2,9.1,17.4c3,6.2,12.8,1.7,9.7-4.6
				c-2.8-5.8-7.6-17.5-11.3-20.4c-3-2.4-8.7-6.8-13.6-9.3c3.3-6.4,6.7-12.7,10.4-18.9c11.5,3.5,22.5-0.6,30.3-11.6
				C284,583.6,274.7,578.3,270.7,583.9z"/>
		</g>
	</g>
</g>
</svg>
