<?xml version="1.0" encoding="utf-8"?>
<!-- Generator: Adobe Illustrator 22.0.1, SVG Export Plug-In . SVG Version: 6.00 Build 0)  -->
<svg version="1.1" id="Layer_1" xmlns="http://www.w3.org/2000/svg" xmlns:xlink="http://www.w3.org/1999/xlink" x="0px" y="0px"
	 viewBox="0 0 800 800" style="enable-background:new 0 0 800 800;" xml:space="preserve">
<g>
	<g>
		<path d="M753,158.7c-1.2-1.5-3.2-2-5-1.4c-4.9,1.8-10.3,2.7-16,2.7c-27,0-49-22-49-49c0-16.3,8-31.4,21.5-40.5
			c1.5-1,2.3-2.9,1.8-4.7s-1.9-3.1-3.7-3.4c-2.1-0.3-4.2-0.4-6.2-0.4c-36.8,0-66.8,30-66.8,66.8s30,66.8,66.8,66.8
			c23.4,0,44.7-11.9,56.9-31.8C754.3,162.2,754.2,160.2,753,158.7z"/>
	</g>
</g>
</svg>
