<?xml version="1.0" encoding="utf-8"?>
<!-- Generator: Adobe Illustrator 22.0.1, SVG Export Plug-In . SVG Version: 6.00 Build 0)  -->
<svg version="1.1" id="Layer_1" xmlns="http://www.w3.org/2000/svg" xmlns:xlink="http://www.w3.org/1999/xlink" x="0px" y="0px"
	 viewBox="0 0 800 800" style="enable-background:new 0 0 800 800;" xml:space="preserve">
<g>
	<g>
		<path d="M758.6,126.9c-1.1-1.4-2.9-1.9-4.6-1.3c-4.5,1.6-9.5,2.5-14.7,2.5c-24.8,0-45.1-20.2-45.1-45.1c0-14.9,7.4-28.9,19.7-37.2
			c1.4-1,2.1-2.7,1.7-4.3c-0.4-1.6-1.7-2.9-3.4-3.1c-1.9-0.3-3.8-0.4-5.7-0.4c-33.9,0-61.4,27.6-61.4,61.4s27.6,61.4,61.4,61.4
			c21.5,0,41.1-10.9,52.3-29.2C759.8,130.2,759.7,128.3,758.6,126.9z"/>
	</g>
</g>
</svg>
