<?xml version="1.0" encoding="utf-8"?>
<!-- Generator: Adobe Illustrator 22.0.1, SVG Export Plug-In . SVG Version: 6.00 Build 0)  -->
<svg version="1.1" id="Layer_1" xmlns="http://www.w3.org/2000/svg" xmlns:xlink="http://www.w3.org/1999/xlink" x="0px" y="0px"
	 viewBox="0 0 800 800" style="enable-background:new 0 0 800 800;" xml:space="preserve">
<style type="text/css">
	.st0{opacity:0.8;}
</style>
<path class="st0" d="M657,331.6c-12.7-36-47.1-55.7-81.3-49.2c12.1-21.2,15.6-47.6,6.9-72.2C569.5,173,533.5,153,498.2,161
	c-5.6-13.4-17.1-23.5-31.7-25.8c-21-3.4-40.9,10.7-47.5,32c-8.2-7-18-12.1-29.2-13.9c-9.5-1.5-18.9-0.6-27.6,2.2
	c-11.1-14.2-29.9-19.8-47.1-12.3c-18.1,7.8-28.7,27.6-26.9,47.3c-0.9-0.2-1.8-0.4-2.8-0.6c-34.6-5.5-67.5,20.4-73.5,57.8
	c-0.8,4.8-1,9.6-0.9,14.3c-6.6-3.5-13.7-6.2-21.4-7.5c-41.6-6.7-81.2,24.5-88.4,69.6c-7.2,45.1,20.7,87,62.3,93.7
	c8.5,1.4,16.8,0.8,24.9-0.8c10.1,23.9,30.7,41.8,56.7,45.9c41.6,6.7,81.2-24.5,88.4-69.6c1.7-10.4,1.3-20.5-0.5-30.1
	c34,4.6,66.1-21,72-57.9c0.1-0.5,0.1-1,0.2-1.4c4.1-0.5,8.2-1.4,12.3-2.8c-2.4,12.3-1.9,25.3,2.5,37.7
	c12.2,34.5,48.2,51.1,80.4,37.1c4.2-1.8,8-4.1,11.6-6.6c0.5,7.9,1.6,15.7,4.3,23.4c14.6,41.4,57.9,61.4,96.7,44.6
	C652.1,420.3,671.7,373,657,331.6z"/>
</svg>
