<?xml version="1.0" encoding="utf-8"?>
<!-- Generator: Adobe Illustrator 22.0.1, SVG Export Plug-In . SVG Version: 6.00 Build 0)  -->
<svg version="1.1" id="Layer_1" xmlns="http://www.w3.org/2000/svg" xmlns:xlink="http://www.w3.org/1999/xlink" x="0px" y="0px"
	 viewBox="0 0 513.5 366" style="enable-background:new 0 0 513.5 366;" xml:space="preserve">
<style type="text/css">
	.st0{fill:none;stroke:#FFFFFF;stroke-width:20;stroke-miterlimit:10;}
	.st1{fill:#FFFFFF;stroke:#FFFFFF;stroke-width:10;stroke-miterlimit:10;}
</style>
<path class="st0" d="M427.4,151.2c-0.5-43-35.6-77.8-78.8-77.8c-7.8,0-15.4,1.2-22.5,3.3C304.9,37.6,263.3,11,215.6,11
	C146.1,11,89.8,67.3,89.8,136.8c0,1.4,0,2.8,0.1,4.1C43.8,154.1,10,196.5,10,246.9C10,307.7,59.3,357,120.1,357
	c25.7,0,49.2-8.8,67.9-23.4c20.6,14.8,45.9,23.4,73.1,23.4c26.8,0,51.8-8.4,72.3-22.8c17.9,14.3,40.6,22.8,65.3,22.8
	c57.9,0,104.8-46.9,104.8-104.8C503.2,204.1,471.2,163.8,427.4,151.2z"/>
<path class="st1" d="M130.8,208.8c0-8.4,1.4-16.7,4.4-25.1c3-8.3,7.2-15.7,13-22.3c5.7-6.6,12.7-11.9,20.9-16c8.3-4,17.6-6,28-6
	c12.4,0,23.1,2.8,32,8.4c8.9,5.7,15.5,13,19.9,22l-14,9c-2.1-4.5-4.6-8.2-7.6-11.2s-6.1-5.4-9.6-7.2c-3.4-1.9-7.1-3.2-10.8-3.9
	c-3.7-0.8-7.2-1.2-10.8-1.2c-7.7,0-14.5,1.7-20.6,4.8c-5.9,3.2-11,7.4-15,12.5c-4,5.2-7.1,11-9.1,17.5s-3.1,13-3.1,19.5
	c0,7.3,1.2,14.3,3.7,20.9c2.4,6.6,5.8,12.4,10.2,17.6c4.4,5.1,9.5,9.2,15.4,12.2c5.9,3,12.3,4.5,19.3,4.5c3.7,0,7.4-0.5,11.2-1.4
	c3.9-0.9,7.6-2.4,11.1-4.4s6.9-4.6,9.9-7.7c3.1-3.1,5.6-6.7,7.6-11.1l14.8,8c-2.2,5.2-5.3,9.8-9.3,13.8s-8.5,7.3-13.6,10.2
	c-5.1,2.7-10.4,4.8-16,6.3c-5.7,1.4-11.1,2.1-16.4,2.1c-9.6,0-18.3-2.1-26.4-6.3c-8-4.1-14.9-9.7-20.7-16.4
	c-5.8-6.7-10.3-14.4-13.6-22.9C132.4,226.5,130.8,217.7,130.8,208.8z"/>
<path class="st1" d="M328.7,280.5c-9.8,0-18.8-2-26.8-6s-14.9-9.3-20.7-16c-5.8-6.6-10.2-14.2-13.4-22.7c-3.2-8.5-4.7-17.3-4.7-26.1
	c0-9.3,1.7-18.2,5-26.7s7.9-16.1,13.8-22.6s12.9-11.7,20.9-15.6c8-3.9,16.8-5.8,26.3-5.8c9.8,0,18.7,2,26.7,6.1s14.9,9.6,20.6,16.2
	c5.8,6.6,10.2,14.2,13.4,22.7c3.2,8.4,4.7,17,4.7,25.8c0,9.3-1.7,18.2-5,26.7s-7.9,16-13.7,22.5c-5.8,6.5-12.8,11.7-20.8,15.5
	C346.8,278.6,338.2,280.5,328.7,280.5z M280.9,209.8c0,7.1,1.2,14,3.4,20.6c2.2,6.6,5.6,12.4,9.7,17.6c4.1,5.1,9.2,9.2,15.1,12.2
	s12.4,4.5,19.6,4.5c7.4,0,14.2-1.7,20-4.8c5.9-3.2,10.9-7.4,15-12.5c4.1-5.2,7.2-11,9.5-17.6c2.1-6.5,3.2-13.1,3.2-19.9
	c0-7.1-1.2-14-3.4-20.6c-2.2-6.6-5.6-12.4-9.8-17.5c-4.3-5.1-9.3-9.1-15.1-12.1s-12.3-4.5-19.4-4.5c-7.4,0-14.2,1.5-20,4.7
	c-5.9,3.2-10.9,7.2-15,12.4c-4.1,5.1-7.3,10.9-9.6,17.5C282.1,196.3,280.9,203,280.9,209.8z"/>
</svg>
