<?xml version="1.0" encoding="utf-8"?>
<!-- Generator: Adobe Illustrator 22.0.1, SVG Export Plug-In . SVG Version: 6.00 Build 0)  -->
<svg version="1.1" id="Capa_1" xmlns="http://www.w3.org/2000/svg" xmlns:xlink="http://www.w3.org/1999/xlink" x="0px" y="0px"
	 viewBox="0 0 511.4 511.4" style="enable-background:new 0 0 511.4 511.4;" xml:space="preserve">
<style type="text/css">
	.st0{fill:#FFFFFF;}
</style>
<g>
	<path class="st0" d="M177.8,438.4C125.7,438.4,73,385.7,73,333.6c0-7.2-5.3-13-12.5-13s-13.6,5.9-13.6,13
		c0,78.2,52.7,130.8,130.8,130.8c7.2,0,13-6.4,13-13.6S185,438.4,177.8,438.4"/>
	<path class="st0" d="M112.7,464c-39.1,0-65.1-26-65.1-65.1c0-7.2-5.9-13-13-13s-13.1,5.8-13.1,13c0,52.1,39.1,91.3,91.3,91.3
		c7.2,0,13-5.9,13-13S119.8,464,112.7,464"/>
	<path class="st0" d="M334.1,47c-7.2,0-13,5.9-13,13s5.9,13,13,13c52.1,0,104.3,46.7,104.3,104.3c0,7.2,5.9,13,13,13
		c7.1,0,13-5.9,13-13C464.5,105.4,412.4,47,334.1,47"/>
	<path class="st0" d="M399.4,21.4c-7.2,0-13,5.3-13,12.5c0,7.2,5.9,13.6,13,13.6c39.1,0,64.6,29,64.6,64.6c0,7.2,6.4,13,13.6,13
		c7.2,0,12.5-5.9,12.5-13C490,62.1,451.4,21.4,399.4,21.4"/>
</g>
<g>
	<path class="st0" d="M56.5,246.8c0,0-14.8-21.5,6.8-36.3s36.2,6.8,36.2,6.8l68.4,99.8c2.4-3.9,4.9-7.8,7.8-11.6L80.8,166.9
		c0,0-14.8-21.5,6.8-36.2c21.5-14.8,36.2,6.8,36.2,6.8l89.3,130.3c3.3-2.7,6.7-5.4,10.3-8.1l-103.5-151c0,0-14.8-21.5,6.8-36.2
		c21.5-14.8,36.2,6.8,36.2,6.8l103.5,151c3.8-2.3,7.6-4.4,11.4-6.5L180.9,82.5c0,0-14.8-21.5,6.8-36.2c21.4-14.8,36.2,6.7,36.2,6.7
		l102.4,149.3l8.2,11.9l7.3,10.7c-64.5,44.3-70.6,127.5-33.8,181.2c7.3,10.7,18.1,3.4,18.1,3.4c-44.3-64.5-30.7-137,33.8-181.2
		l-19-95.1c0,0-7.1-25.1,18-32.2C384,94,391,119,391,119l22,65.2c8.7,25.8,18,51.6,30.2,76c34.6,68.8,13.9,154.3-51.3,199.1
		c-71.2,48.8-168.6,30.7-217.4-40.5c-2.6-3.8-4.8-7.4-6.8-11.2l-0.5,0.4L56.5,246.8z"/>
	<rect x="341.8" y="225" class="st0" width="21.3" height="41.1"/>
	<rect x="283.5" y="230.3" class="st0" width="41.2" height="203.4"/>
	<rect x="312.3" y="225" class="st0" width="37.1" height="47.9"/>
</g>
</svg>
