<?xml version="1.0" encoding="utf-8"?>
<!-- Generator: Adobe Illustrator 22.0.1, SVG Export Plug-In . SVG Version: 6.00 Build 0)  -->
<svg version="1.1" id="Capa_1" xmlns="http://www.w3.org/2000/svg" xmlns:xlink="http://www.w3.org/1999/xlink" x="0px" y="0px"
	 viewBox="0 0 384 512" style="enable-background:new 0 0 384 512;" xml:space="preserve">
<style type="text/css">
	.st0{fill:#FFFFFF;}
</style>
<g>
	<path class="st0" d="M280.9,112.8c-26.2-33.4-53.2-67.9-75.1-105C202.9,3,197.7,0,192,0s-10.9,3-13.8,7.9
		c-21.8,37-48.9,71.6-75.1,104.9C50.1,180.4,0,244.4,0,320c0,105.9,86.1,192,192,192s192-86.1,192-192
		C384,244.4,333.9,180.5,280.9,112.8z M192,480c-88.2,0-160-71.8-160-160c0-64.6,46.8-124.3,96.4-187.5C150,105,172.2,76.6,192,46.3
		c19.8,30.3,42,58.7,63.6,86.3C305.2,195.7,352,255.4,352,320C352,408.2,280.2,480,192,480z"/>
</g>
<g>
	<path class="st0" d="M162,265c-16.5,0-30,13.5-30,30c0,16.5,13.5,30,30,30s30-13.5,30-30S178.5,265,162,265z M162,305
		c-5.5,0-10-4.5-10-10s4.5-10,10-10c5.5,0,10,4.5,10,10S167.5,305,162,305z"/>
</g>
<g>
	<path class="st0" d="M222,365c-16.5,0-30,13.5-30,30s13.5,30,30,30s30-13.5,30-30S238.5,365,222,365z M222,405c-5.5,0-10-4.5-10-10
		s4.5-10,10-10c5.5,0,10,4.5,10,10S227.5,405,222,405z"/>
</g>
<g>
	<path class="st0" d="M249.1,287.9c-3.9-3.9-10.2-3.9-14.1,0l-100,100c-3.9,3.9-3.9,10.2,0,14.1c2,1.9,4.5,2.9,7.1,2.9
		c2.6,0,5.1-1,7.1-2.9l100-100C253,298.2,253,291.8,249.1,287.9z"/>
</g>
</svg>
