<?xml version="1.0" encoding="utf-8"?>
<!-- Generator: Adobe Illustrator 22.0.1, SVG Export Plug-In . SVG Version: 6.00 Build 0)  -->
<svg version="1.1" id="Layer_1" xmlns="http://www.w3.org/2000/svg" xmlns:xlink="http://www.w3.org/1999/xlink" x="0px" y="0px"
	 viewBox="0 0 800 800" style="enable-background:new 0 0 800 800;" xml:space="preserve">
<style type="text/css">
	.st0{stroke:#231F20;stroke-linecap:round;stroke-miterlimit:10;}
	.st1{fill:#FFFFFF;stroke:#231F20;stroke-linecap:round;stroke-miterlimit:10;}
	.st2{fill:#ED694A;}
	.st3{fill:#D8553A;}
	.st4{fill:#F4A32C;}
	.st5{fill:#E89528;}
	.st6{fill:#F4D44E;}
	.st7{fill:#EAE9E8;}
	.st8{fill:#F7E7A1;}
	.st9{fill:#E8C842;}
</style>
<g>
	<circle class="st0" cx="569.3" cy="654.8" r="84.8"/>
	<circle class="st1" cx="569.3" cy="654.8" r="80.1"/>
	<g>
		<path class="st2" d="M602.6,628.6c-3-3.3-7.7-7.8-9.7,2.3c-0.7,3.4-2.3,6.1-3.6,8.2c-1.5-7.4-5.9-15.1-10.1-20.3
			c-1.6-1.9-7.1-9.7-8.2-22.6c-0.2-1.9-2.4-2.8-3.9-1.5c-13.7,12.4-21.2,29.5-21.5,48.7c0,0-5.7-4.8-8.8-13.7
			c-0.8-2.4-4.1-2.9-5.5-0.7c-0.3,0.4-0.5,0.8-0.7,1.2c-10.6,18.7-15.6,41.3-10.9,62.4c7.8,35.3,59.8,45.2,87.3,23
			C633.9,693.8,625.3,653.4,602.6,628.6z"/>
		<g>
			<path class="st3" d="M527,694.8c-4.6-21.3,0.3-44.2,10.6-63.2c-0.3-0.6-0.5-1.3-0.7-2c-0.8-2.4-4.1-2.9-5.5-0.7
				c-0.3,0.4-0.5,0.8-0.7,1.2c-10.6,18.7-15.6,41.3-10.9,62.4c3.6,16.1,16.3,26.9,31.7,31.8C539.4,718.6,530,708.6,527,694.8z"/>
			<path class="st3" d="M553,643c0.6-17.5,6.9-33.1,18.2-45.1c-0.1-0.7-0.1-1.3-0.2-1.7c-0.2-1.9-2.4-2.9-3.8-1.6
				c-13.2,11.9-21.3,28.9-21.6,48.8l2.5,1.9c1.2,0.9,2.9,0.9,4,0C552.9,644.8,553,643.9,553,643z"/>
		</g>
		<path class="st4" d="M594.3,654.4c-2.2-2.4-5.7-5.7-7.2,1.7c-0.5,2.5-1.7,4.5-2.7,6c-1.1-5.5-4.4-11.2-7.4-15
			c-1.2-1.4-5.2-7.1-6-16.7c-0.1-1.4-1.8-2.1-2.9-1.1c-10.1,9.2-15.7,21.8-15.9,36c0,0-4.2-3.5-6.5-10.1c-0.6-1.8-3-2.1-4-0.5
			c-0.2,0.3-0.4,0.6-0.5,0.9c-7.8,13.8-11.5,30.5-8.1,46.1c5.8,26.1,44.1,33.4,64.5,17C617.4,702.6,611.1,672.7,594.3,654.4z"/>
		<path class="st5" d="M540.3,703.7c-3.1-15.2,0.1-31.6,6.9-45.2c-0.5-1-1-2.1-1.4-3.3c-0.6-1.8-3-2.1-4-0.5
			c-0.2,0.3-0.4,0.6-0.5,0.9c-7.8,13.8-11.5,30.5-8.1,46.1c2.7,12.1,12.4,20.2,24.1,23.7C548.9,721.2,542.4,713.9,540.3,703.7z"/>
		<path class="st6" d="M586.7,678c-1.5-1.7-3.9-3.9-4.9,1.2c-0.3,1.7-1.1,3-1.8,4.1c-0.7-3.7-2.9-7.6-5-10.2
			c-0.8-1-3.5-4.8-4.1-11.3c-0.1-1-1.2-1.4-1.9-0.8c-6.8,6.2-10.6,14.8-10.7,24.4c0,0-2.8-2.4-4.4-6.9c-0.4-1.2-2-1.4-2.7-0.4
			c-0.1,0.2-0.3,0.4-0.4,0.6c-5.3,9.3-7.8,20.7-5.5,31.2c3.9,17.7,29.9,22.6,43.6,11.5c4.7-3.8,7.6-9.2,8.2-15.1
			C598,697.4,594.6,686.6,586.7,678z"/>
		<path class="st7" d="M579.7,699.9c-0.8-0.9-2.2-2.2-2.7,0.6c-0.2,1-0.6,1.7-1,2.3c-0.4-2.1-1.6-4.2-2.8-5.7
			c-0.4-0.5-2-2.7-2.3-6.3c0-0.5-0.7-0.8-1.1-0.4c-3.8,3.5-5.9,8.2-6,13.6c0,0-1.6-1.3-2.4-3.8c-0.2-0.7-1.1-0.8-1.5-0.2
			c-0.1,0.1-0.1,0.2-0.2,0.3c-2.9,5.2-4.4,11.5-3,17.4c3,13.4,27.4,13,28.9-2C586,710.7,584.1,704.6,579.7,699.9z"/>
		<path class="st8" d="M562.3,720.3c-1.3-5.3,0.1-10.9,3-15.6c0.1-0.1,0.1-0.2,0.2-0.3c0.4-0.5,1.3-0.4,1.5,0.2
			c0.9,2.2,2.4,3.4,2.4,3.4c0.1-3.9,1.5-7.5,4.1-10.4c-0.6-0.8-2.4-2.8-2.7-6.9c0-0.5-0.7-0.8-1.1-0.4c-3.8,3.5-5.9,8.2-6,13.6
			c0,0-1.6-1.3-2.4-3.8c-0.2-0.7-1.1-0.8-1.5-0.2c-0.1,0.1-0.1,0.2-0.2,0.3c-2.9,5.2-4.4,11.5-3,17.4c1.2,5.4,6.2,8.7,11.7,9.5
			C565.3,725.7,563,723.4,562.3,720.3z"/>
		<g>
			<path class="st3" d="M549,601.4c6.1-5,6.1-14.3,0-19.3C542.9,587.1,542.9,596.5,549,601.4z"/>
			<path class="st3" d="M622.5,641.5c6.1-5,6.1-14.3,0-19.3C619.7,624.5,616.4,636.5,622.5,641.5z"/>
			<path class="st3" d="M513.9,645.3c4.4-3.6,4.4-10.3,0-13.9C511.9,633,509.5,641.7,513.9,645.3z"/>
			<path class="st3" d="M590.4,615.3c4.4-3.6,4.4-10.3,0-13.9C586,605,586,611.8,590.4,615.3z"/>
		</g>
		<path class="st5" d="M557.9,663.1c1-12,5.6-22.6,13.3-30.8c-0.1-0.6-0.1-1.2-0.2-1.8c-0.1-1.4-1.8-2.1-2.9-1.1
			c-8,7.3-13.1,16.7-15,27.4l0,0c-0.1,0.8-0.3,1.9-0.4,2.9c0,0,0,0,0,0c-0.2,1.9-0.4,3.8-0.4,5.8
			C552.5,665.4,557.3,667.9,557.9,663.1z"/>
		<g>
			<path class="st9" d="M552.4,712.5c-2.1-9.9-0.3-20.4,3.8-29.5c-0.8-1.1-1.7-2.6-2.3-4.5c-0.4-1.2-2-1.4-2.7-0.4
				c-0.1,0.2-0.3,0.4-0.4,0.6c-5.3,9.3-7.8,20.7-5.5,31.2c1.8,8.3,8.5,13.7,16.5,16.1C557.1,723,553.6,718.4,552.4,712.5z"/>
			<path class="st9" d="M565.8,681.1c0.7-4.9,2.7-10.4,5.9-14.9c-0.3-1.3-0.6-2.7-0.8-4.4c-0.1-1-1.2-1.4-1.9-0.8
				c-4.3,3.9-7.3,8.6-9.1,14l0,0c-0.3,0.8-0.7,2.2-0.9,3.3c0,0,0,0,0,0c-0.5,2.3-0.7,4.6-0.8,7C562.1,685.9,565.2,684.9,565.8,681.1
				z"/>
		</g>
	</g>
</g>
</svg>
