<?xml version="1.0" encoding="utf-8"?>
<!-- Generator: Adobe Illustrator 22.0.1, SVG Export Plug-In . SVG Version: 6.00 Build 0)  -->
<svg version="1.1" id="Layer_1" xmlns="http://www.w3.org/2000/svg" xmlns:xlink="http://www.w3.org/1999/xlink" x="0px" y="0px"
	 viewBox="0 0 800 800" style="enable-background:new 0 0 800 800;" xml:space="preserve">
<g>
	<g>
		<g>
			<path d="M650,380.1l-81.6-81.6V190.8c0-8.8-7.1-15.9-15.9-15.9h-63.7c-8.8,0-15.9,7.1-15.9,15.9v12.1L426.9,157
				c-18.8-18.8-49-18.6-67.6-0.1L134,380.1c-18.7,18.7-18.7,48.9,0,67.6c13.6,13.6,33.2,17.1,49.7,11.3v212
				c0,8.8,7.1,15.9,15.9,15.9h384.6c8.8,0,15.9-7.1,15.9-15.9V459c16.6,5.9,36.1,2.3,49.7-11.3c9-9,14-21,14-33.8
				C664,401.2,659,389.2,650,380.1z M504.6,206.8h31.9v59.9l-31.9-31.9V206.8z M440.9,655.1h-95.6V525.5h95.6V655.1z M568.4,655.1
				h-95.6V509.6c0-8.8-7.1-15.9-15.9-15.9H329.3c-8.8,0-15.9,7.1-15.9,15.9v145.6h-97.7V433.9L393,258.4l175.4,175.4V655.1z
				 M627.5,425.2c-6.2,6.2-16.3,6.2-22.5,0c-6.8-6.8-184.1-184.1-200.6-200.6c-6.2-6.2-16.2-6.2-22.5-0.1
				c-9.4,9.3-195,192.9-202.8,200.6c-6.2,6.2-16.3,6.2-22.5,0c-6.2-6.2-6.2-16.3-0.1-22.5l225.3-223.2c6.2-6.2,16.3-6.2,22.5,0
				c14,14,216.7,216.7,223.1,223.1C633.7,408.9,633.7,419,627.5,425.2z"/>
		</g>
	</g>
	<g>
		<g>
			<path d="M393.1,334.3c-35.2,0-63.7,28.6-63.7,63.7s28.6,63.7,63.7,63.7s63.7-28.6,63.7-63.7S428.2,334.3,393.1,334.3z
				 M393.1,429.9c-17.6,0-31.9-14.3-31.9-31.9c0-17.6,14.3-31.9,31.9-31.9c17.6,0,31.9,14.3,31.9,31.9
				C424.9,415.6,410.6,429.9,393.1,429.9z"/>
		</g>
	</g>
</g>
</svg>
