<?xml version="1.0" encoding="utf-8"?>
<!-- Generator: Adobe Illustrator 22.0.1, SVG Export Plug-In . SVG Version: 6.00 Build 0)  -->
<svg version="1.1" id="Layer_1" xmlns="http://www.w3.org/2000/svg" xmlns:xlink="http://www.w3.org/1999/xlink" x="0px" y="0px"
	 viewBox="0 0 800 800" style="enable-background:new 0 0 800 800;" xml:space="preserve">
<style type="text/css">
	.st0{fill:#2196F3;}
	.st1{fill:#FAFAFA;}
</style>
<g>
	<path class="st0" d="M755.3,590.1c-5.5-7-11.2-14.3-15.8-22c-1.2-2.1-4.6-2.1-5.8,0c-4.6,7.8-10.3,15-15.8,22
		c-11.2,14.2-21.7,27.7-21.7,43.6c0,22.3,18.1,40.4,40.4,40.4c22.3,0,40.4-18.1,40.4-40.4C777,617.8,766.5,604.3,755.3,590.1z"/>
	<g>
		<path class="st1" d="M726.6,626.9c-5.6,0-10.1-4.5-10.1-10.1s4.5-10.1,10.1-10.1s10.1,4.5,10.1,10.1S732.1,626.9,726.6,626.9z
			 M726.6,613.5c-1.9,0-3.4,1.5-3.4,3.4c0,1.9,1.5,3.4,3.4,3.4c1.9,0,3.4-1.5,3.4-3.4C729.9,615,728.4,613.5,726.6,613.5z"/>
		<path class="st1" d="M746.7,660.5c-5.6,0-10.1-4.5-10.1-10.1s4.5-10.1,10.1-10.1s10.1,4.5,10.1,10.1S752.3,660.5,746.7,660.5z
			 M746.7,647.1c-1.8,0-3.4,1.5-3.4,3.4s1.5,3.4,3.4,3.4s3.4-1.5,3.4-3.4S748.6,647.1,746.7,647.1z"/>
		<path class="st1" d="M719.8,653.8c-0.9,0-1.7-0.3-2.4-1c-1.3-1.3-1.3-3.4,0-4.8l33.6-33.6c1.3-1.3,3.4-1.3,4.8,0
			c1.3,1.3,1.3,3.4,0,4.8l-33.6,33.6C721.6,653.5,720.7,653.8,719.8,653.8z"/>
	</g>
</g>
</svg>
