<?xml version="1.0" encoding="utf-8"?>
<!-- Generator: Adobe Illustrator 22.0.1, SVG Export Plug-In . SVG Version: 6.00 Build 0)  -->
<svg version="1.1" id="Layer_1" xmlns="http://www.w3.org/2000/svg" xmlns:xlink="http://www.w3.org/1999/xlink" x="0px" y="0px"
	 viewBox="0 0 800 800" style="enable-background:new 0 0 800 800;" xml:space="preserve">
<style type="text/css">
	.st0{fill:#90A4AE;}
	.st1{fill:#F44336;}
	.st2{fill:#ECEFF1;}
</style>
<g>
	<path class="st0" d="M64.7,553.8v58.6H39.6v-58.6c0-7,5.6-12.6,12.6-12.6S64.7,546.8,64.7,553.8z"/>
	<path class="st1" d="M73.1,645.9c0,11.6-9.4,20.9-20.9,20.9s-20.9-9.4-20.9-20.9c0-6.9,3.3-12.9,8.4-16.8v-16.8h25.1v16.8
		C69.8,633,73.1,639,73.1,645.9z"/>
	<g>
		<path class="st2" d="M52.1,671C38.3,671,27,659.7,27,645.9c0-7.2,3-14,8.4-18.7v-73.4c0-9.2,7.5-16.8,16.8-16.8
			s16.8,7.5,16.8,16.8v73.4c5.4,4.8,8.4,11.5,8.4,18.7C77.3,659.7,66,671,52.1,671z M52.1,545.4c-4.6,0-8.4,3.8-8.4,8.4v75.4
			c0,1.3-0.6,2.6-1.7,3.3c-4.3,3.2-6.7,8.1-6.7,13.4c0,9.2,7.5,16.8,16.8,16.8s16.8-7.5,16.8-16.8c0-5.3-2.4-10.2-6.7-13.4
			c-1-0.8-1.7-2-1.7-3.3v-75.4C60.5,549.1,56.7,545.4,52.1,545.4z M39.6,629.1L39.6,629.1L39.6,629.1z"/>
		<path class="st2" d="M56.3,570.5c-2.3,0-4.2,1.9-4.2,4.2s1.9,4.2,4.2,4.2h12.6v-8.4H56.3z"/>
		<path class="st2" d="M56.3,595.6c-2.3,0-4.2,1.9-4.2,4.2s1.9,4.2,4.2,4.2h12.6v-8.4H56.3z"/>
	</g>
</g>
</svg>
